<svg id="SvgjsSvg1018" width="288" height="288" xmlns="http://www.w3.org/2000/svg" version="1.1" xmlns:xlink="http://www.w3.org/1999/xlink" xmlns:svgjs="http://svgjs.com/svgjs"><defs id="SvgjsDefs1019"></defs><g id="SvgjsG1020" transform="matrix(0.9167,0,0,0.9167,11.995200556087497,11.97021030187608)"><svg xmlns="http://www.w3.org/2000/svg" id="Layer_1" enable-background="new 0 0 48 48" viewBox="0 0 48 48" width="288" height="288"><ellipse cx="24" cy="24" fill="#828a85" rx="15.3" ry="15.3" transform="rotate(-18.791 23.996 23.998)" class="color8ccda5 svgShape"></ellipse><circle cx="24" cy="3.9" r="2.4" fill="#828a85" class="color8ccda5 svgShape"></circle><path fill="#828a85" d="M21.6 44.1c0-1.3 1.1-2.4 2.4-2.4 1.3 0 2.4 1.1 2.4 2.4 0 1.3-1.1 2.4-2.4 2.4C22.7 46.5 21.6 45.4 21.6 44.1zM44.1 26.4c-1.3 0-2.4-1.1-2.4-2.4 0-1.3 1.1-2.4 2.4-2.4 1.3 0 2.4 1.1 2.4 2.4C46.5 25.3 45.4 26.4 44.1 26.4zM3.9 21.6c1.3 0 2.4 1.1 2.4 2.4 0 1.3-1.1 2.4-2.4 2.4-1.3 0-2.4-1.1-2.4-2.4C1.5 22.7 2.6 21.6 3.9 21.6z" class="color8ccda5 svgShape"></path><circle cx="7.8" cy="7.8" r="3.4" fill="#828a85" class="color8ccda5 svgShape"></circle><path fill="#828a85" d="M37.8 42.6c-1.3-1.3-1.3-3.5 0-4.8 1.3-1.3 3.5-1.3 4.8 0 1.3 1.3 1.3 3.5 0 4.8S39.1 43.9 37.8 42.6zM42.6 10.2c-1.3 1.3-3.5 1.3-4.8 0-1.3-1.3-1.3-3.5 0-4.8 1.3-1.3 3.5-1.3 4.8 0C43.9 6.7 43.9 8.9 42.6 10.2zM5.4 37.8c1.3-1.3 3.5-1.3 4.8 0 1.3 1.3 1.3 3.5 0 4.8s-3.5 1.3-4.8 0C4.1 41.3 4.1 39.1 5.4 37.8z" class="color8ccda5 svgShape"></path><path fill="#ffffff" d="M23.2 17.6c0 2-1.6 3.5-3.5 3.5-2 0-3.5-1.6-3.5-3.5 0-2 1.6-3.5 3.5-3.5C21.6 14.1 23.2 15.7 23.2 17.6zM21.2 27.8c0 1.6-1.3 2.8-2.8 2.8-1.6 0-2.8-1.3-2.8-2.8 0-1.6 1.3-2.8 2.8-2.8C19.9 25 21.2 26.3 21.2 27.8zM30.3 30.7c0 1.2-1 2.2-2.2 2.2-1.2 0-2.2-1-2.2-2.2 0-1.2 1-2.2 2.2-2.2C29.3 28.5 30.3 29.5 30.3 30.7zM34.8 20.8c0 1.7-1.4 3.2-3.2 3.2-1.7 0-3.2-1.4-3.2-3.2 0-1.7 1.4-3.2 3.2-3.2C33.4 17.6 34.8 19 34.8 20.8z" class="colorfff svgShape"></path><path d="M3.9,27.1c1.5,0,2.7-1,3-2.4h1c0.2,3.6,1.6,7.2,4.2,10.1l-2,2C9.5,36.3,8.7,36,7.8,36c-1.1,0-2.2,0.4-2.9,1.2
		s-1.2,1.8-1.2,2.9s0.4,2.2,1.2,2.9s1.8,1.2,2.9,1.2s2.2-0.4,2.9-1.2c0.8-0.8,1.2-1.8,1.2-2.9c0-0.9-0.3-1.7-0.7-2.4l2-2
		c2.9,2.6,6.4,4,10.1,4.2v1c-1.4,0.3-2.4,1.6-2.4,3c0,1.7,1.4,3.1,3.1,3.1s3.1-1.4,3.1-3.1c0-1.5-1-2.7-2.4-3v-1
		c3.6-0.2,7.2-1.6,10.1-4.2l2,2c-0.5,0.7-0.7,1.5-0.7,2.4c0,1.1,0.4,2.2,1.2,2.9s1.8,1.2,2.9,1.2s2.2-0.4,2.9-1.2
		c0.8-0.8,1.2-1.8,1.2-2.9s-0.4-2.2-1.2-2.9c-0.8-0.8-1.8-1.2-2.9-1.2c-0.9,0-1.7,0.3-2.4,0.7l-2-2c2.6-2.9,4-6.4,4.2-10.1h1
		c0.3,1.4,1.6,2.4,3,2.4c1.7,0,3.1-1.4,3.1-3.1s-1.4-3.1-3.1-3.1c-1.5,0-2.7,1-3,2.4h-1c-0.2-3.6-1.6-7.2-4.2-10.1l2-2
		c0.7,0.5,1.5,0.7,2.4,0.7c1.1,0,2.1-0.4,2.9-1.2s1.2-1.8,1.2-2.9s-0.4-2.2-1.2-2.9c-0.8-0.8-1.8-1.2-2.9-1.2S38,4.1,37.3,4.9
		C36.5,5.7,36,6.7,36,7.8c0,0.9,0.3,1.7,0.7,2.4l-2,2C32,9.5,28.4,8.1,24.8,8v-1c1.4-0.3,2.4-1.6,2.4-3c0-1.7-1.4-3.1-3.1-3.1
		s-3.1,1.4-3.1,3.1c0,1.5,1,2.7,2.4,3v1c-3.6,0.2-7.2,1.6-10.1,4.2l-2-2c1.1-1.6,1-3.8-0.5-5.3c-1.6-1.6-4.3-1.6-5.9,0
		c-1.6,1.6-1.6,4.3,0,5.9C5.7,11.6,6.8,12,7.8,12c0.8,0,1.6-0.3,2.4-0.7l2,2C9.5,16,8.1,19.6,8,23.3h-1c-0.3-1.4-1.6-2.4-3-2.4
		c-1.7,0-3.1,1.4-3.1,3.1S2.2,27.1,3.9,27.1z M44.1,22.4c0.9,0,1.6,0.7,1.6,1.6s-0.7,1.6-1.6,1.6s-1.6-0.7-1.6-1.6
		S43.2,22.4,44.1,22.4z M9.7,42.1c-1,1-2.7,1-3.7,0c-0.5-0.5-0.8-1.2-0.8-1.9s0.3-1.4,0.8-1.9s1.2-0.8,1.9-0.8s1.4,0.3,1.9,0.8
		s0.8,1.2,0.8,1.9S10.2,41.6,9.7,42.1z M25.6,44.1c0,0.9-0.7,1.6-1.6,1.6s-1.6-0.7-1.6-1.6s0.7-1.6,1.6-1.6S25.6,43.2,25.6,44.1z
		 M42.1,38.3c0.5,0.5,0.8,1.2,0.8,1.9s-0.3,1.4-0.8,1.9c-1,1-2.7,1-3.7,0c-0.5-0.5-0.8-1.2-0.8-1.9s0.3-1.4,0.8-1.9s1.2-0.8,1.9-0.8
		S41.6,37.8,42.1,38.3z M38.3,5.9c0.5-0.5,1.2-0.8,1.9-0.8s1.4,0.3,1.9,0.8s0.8,1.2,0.8,1.9s-0.3,1.4-0.8,1.9c-1,1-2.7,1-3.7,0
		c-0.5-0.5-0.8-1.2-0.8-1.9S37.8,6.4,38.3,5.9z M22.4,3.9c0-0.9,0.7-1.6,1.6-1.6s1.6,0.7,1.6,1.6S24.9,5.5,24,5.5S22.4,4.8,22.4,3.9
		z M5.9,9.7c-1-1-1-2.7,0-3.7c0.5-0.5,1.2-0.8,1.9-0.8s1.4,0.3,1.9,0.8c1,1,1,2.7,0,3.7C8.7,10.7,7,10.7,5.9,9.7z M13.7,13.7
		c2.8-2.8,6.4-4.3,10.3-4.3c3.9,0,7.6,1.5,10.3,4.3s4.3,6.4,4.3,10.3c0,3.9-1.5,7.6-4.3,10.3s-6.4,4.3-10.3,4.3
		c-3.9,0-7.6-1.5-10.3-4.3S9.4,27.9,9.4,24C9.4,20.1,10.9,16.4,13.7,13.7z M3.9,22.4c0.9,0,1.6,0.7,1.6,1.6s-0.7,1.6-1.6,1.6
		S2.3,24.9,2.3,24S3,22.4,3.9,22.4z" fill="#ff0000" class="color000 svgShape"></path><path d="M19.6 21.9c2.4 0 4.3-1.9 4.3-4.3s-1.9-4.3-4.3-4.3-4.3 1.9-4.3 4.3S17.3 21.9 19.6 21.9zM19.6 14.8c1.5 0 2.8 1.2 2.8 2.8s-1.2 2.8-2.8 2.8-2.8-1.2-2.8-2.8S18.1 14.8 19.6 14.8zM18.4 31.4c2 0 3.6-1.6 3.6-3.6 0-2-1.6-3.6-3.6-3.6s-3.6 1.6-3.6 3.6C14.8 29.8 16.4 31.4 18.4 31.4zM18.4 25.8c1.1 0 2.1.9 2.1 2.1 0 1.1-.9 2.1-2.1 2.1s-2.1-.9-2.1-2.1C16.3 26.7 17.2 25.8 18.4 25.8zM28.1 33.6c1.6 0 2.9-1.3 2.9-2.9s-1.3-2.9-2.9-2.9-2.9 1.3-2.9 2.9S26.5 33.6 28.1 33.6zM28.1 29.2c.8 0 1.4.6 1.4 1.4s-.6 1.4-1.4 1.4-1.4-.6-1.4-1.4S27.3 29.2 28.1 29.2zM31.7 24.7c2.2 0 3.9-1.8 3.9-3.9s-1.8-3.9-3.9-3.9c-2.2 0-3.9 1.8-3.9 3.9S29.5 24.7 31.7 24.7zM31.7 18.4c1.3 0 2.4 1.1 2.4 2.4s-1.1 2.4-2.4 2.4c-1.3 0-2.4-1.1-2.4-2.4S30.4 18.4 31.7 18.4z" fill="#ff0000" class="color000 svgShape"></path></svg></g></svg>